/* XPM */
static char *xpm_[] = {
/* columns rows colors chars-per-pixel */
"48 48 169 2 ",
"   c None",
".  c #4C060C",
"X  c #4D060C",
"o  c #4E070C",
"O  c #4F070D",
"+  c #50070D",
"@  c #51070D",
"#  c #52070D",
"$  c #53070E",
"%  c #54070E",
"&  c #55080E",
"*  c #56080E",
"=  c #57080F",
"-  c #58080F",
";  c #59080F",
":  c #5A080F",
">  c #5A0810",
",  c #5B0810",
"<  c #5C0910",
"1  c #5D0910",
"2  c #5E0910",
"3  c #5E0911",
"4  c #5F0911",
"5  c #600911",
"6  c #610911",
"7  c #620912",
"8  c #630A12",
"9  c #640A12",
"0  c #650A12",
"q  c #660A13",
"w  c #670A13",
"e  c #680A13",
"r  c #690A13",
"t  c #690A14",
"y  c #6A0B14",
"u  c #6B0B14",
"i  c #6C0B14",
"p  c #6D0B14",
"a  c #6D0B15",
"s  c #6E0B15",
"d  c #6F0B15",
"f  c #700B15",
"g  c #710C16",
"h  c #720C16",
"j  c #730C16",
"k  c #740C16",
"l  c #740C17",
"z  c #750C17",
"x  c #760C17",
"c  c #770C17",
"v  c #780D17",
"b  c #790D18",
"n  c #7A0D18",
"m  c #7B0D18",
"M  c #7C0D18",
"N  c #7C0D19",
"B  c #7D0D19",
"V  c #7E0D19",
"C  c #7F0E19",
"Z  c #6E1415",
"A  c #6E1716",
"S  c #6D1A14",
"D  c #751617",
"F  c #800E19",
"G  c #800E1A",
"H  c #810E1A",
"J  c #820E1A",
"K  c #830E1A",
"L  c #840E1B",
"P  c #850E1B",
"I  c #850F1B",
"U  c #870F1A",
"Y  c #860F1B",
"T  c #870F1B",
"R  c #870E1C",
"E  c #870F1C",
"W  c #890F1A",
"Q  c #890D1C",
"!  c #890D1D",
"~  c #8A0D1D",
"^  c #880F1C",
"/  c #890F1C",
"(  c #890F1E",
")  c #87101E",
"_  c #87101F",
"`  c #89101A",
"'  c #8A101A",
"]  c #891B1E",
"[  c #8D1C1F",
"{  c #901F1D",
"}  c #8F1C20",
"|  c #901C20",
" . c #8D3C22",
".. c #9B3626",
"X. c #9D3627",
"o. c #9E3627",
"O. c #99471E",
"+. c #964B1F",
"@. c #99481E",
"#. c #98481F",
"$. c #984A1F",
"%. c #974D20",
"&. c #974E21",
"*. c #9D5927",
"=. c #AC4A23",
"-. c #AC4B24",
";. c #AD4C24",
":. c #AD4D25",
">. c #AD4E25",
",. c #A24329",
"<. c #A34329",
"1. c #A44429",
"2. c #A4442A",
"3. c #A5442A",
"4. c #A35021",
"5. c #A45024",
"6. c #AE5026",
"7. c #AE5227",
"8. c #AF5428",
"9. c #AF5629",
"0. c #A05C29",
"q. c #A35F2B",
"w. c #A95A2A",
"e. c #B15224",
"r. c #B65325",
"t. c #B0592B",
"y. c #B15B2C",
"u. c #B25E2D",
"i. c #AF5D30",
"p. c #B25D31",
"a. c #B35E31",
"s. c #A8622D",
"d. c #AD652F",
"f. c #B3612F",
"g. c #AE6530",
"h. c #B16731",
"j. c #B56430",
"k. c #B76632",
"l. c #B36832",
"z. c #B66A33",
"x. c #B86933",
"c. c #B96A34",
"v. c #C97D31",
"b. c #DC862E",
"n. c #DE862E",
"m. c #CA8032",
"M. c #CB8435",
"N. c #CE983E",
"B. c #E58F30",
"V. c #E59030",
"C. c #E59131",
"Z. c #E69332",
"A. c #E79633",
"S. c #E79934",
"D. c #E89C36",
"F. c #E9A038",
"G. c #EAA63B",
"H. c #EBAA3D",
"J. c #DEAC46",
"K. c #DFAD46",
"L. c #E1B145",
"P. c #ECB040",
"I. c #EEB543",
"U. c #EFBB45",
"Y. c #F0C148",
"T. c #F2C74B",
"R. c #F3CB4D",
"E. c #F4D04F",
"W. c #F5D451",
/* pixels */
"                                                                                                ",
"                                                                                                ",
"                                                                                                ",
"                                                                                                ",
"                                                                                                ",
"                                                                                                ",
"          _ / / / / / / / / / / / / / / / / / / / / / / / / / / / / / / / / / / / / _           ",
"      R / / / / / / / / / / / / / / / / / / / / / / / / / / / / / / / / / / / / / / / / R       ",
"    R ' / / / / / / / / / / / / / / / / / / / / / / / / / / / / / / / / / / / / / / / / / R     ",
"    / R / / / / / / / / / / / / / / / / / / / / / / / / / / / / / / / / / / / / / / / / / /     ",
"  / / / / / / / / / / / / / / / / / / / / / / / / / / / / / / / / / / / / / / / / / / / / / }   ",
"  / / / / / / / / / / / / / / / / / / / / / / / / / / / / / / / / / / ` / / / / / / / / / / `   ",
"  / / / / / / / / / ` / / / / / / / / / / / / _ / / / / / / / / _ Y R R ` R / R / Y / / R ` /   ",
"  / | 2.2.2.1.,.[ Y R R / / / / / o.1.1.,.,.o.R / Y o.2.2.2.,.,.1.1.1.,.,.,.,.,.,.,.c.c.Y R R   ",
"  / } K.W.W.W.K.] J Y R R / / / ' p.W.W.W.W.u.J J Y p.W.W.W.W.W.W.W.W.W.W.W.W.W.W.W.W.z.B J Y   ",
"  / R c.E.E.E.l.m B J J _ / / / R Y E.E.E.E.m v B J J E.E.E.E.E.R.W.R.W.R.W.E.E.E.W.R.h.m B J   ",
"  R R k.R.R.R.g.g x N L P P ` ` ) J R.R.R.R.g z m B B R.R.R.R.N.N.N.N.N.N.N.N.N.N.N.L.d.g v B   ",
"  R L j.T.T.T.s.u d x J P P } ` Y J T.T.T.T.0 i g m m T.T.T.T.7 < < 7 7 7 7 7 7 7 8 S  .d z v   ",
"  R L j.Y.Y.Y.q.7 u g V P R ) ' Y J Y.Y.Y.Y.7 0 i z m Y.Y.Y.Y.& & : , < < 7 7 7 7 7 0 9 u g m   ",
"  _ L u.U.U.U.*., 9 g N L R ` ) Y J U.U.U.U.: 7 i z z U.U.U.U.& $ : < 7 0 0 0 0 0 9 9 d d z B   ",
"  _ J y.I.I.I.*.; 9 d N B ) ) ` J m I.I.I.I.& < y z z U.I.I.I.$ $ : 7 0 i i D w.d d i l c m J   ",
"  R J y.P.P.P.P.P.P.P.P.I.H.H.H.P.H.P.P.P.P.& < y g z H.P.P.I.H.P.P.H.I.P.P.P.M.i g c m m B J   ",
"  Y Y 8.H.H.H.H.H.H.H.H.H.H.H.H.H.H.H.H.H.H.$ < y g z H.H.H.H.H.H.H.H.H.H.H.H.m.g c m B ) J J   ",
"  ) J 7.G.G.G.G.G.G.G.G.G.G.G.G.H.G.G.G.G.G.$ < y z z G.G.G.G.G.G.G.G.G.G.G.G.v.g c m B J ) )   ",
"  / J 7.D.F.F.&.o $ & : 7 7 0 0 7 7 F.F.F.D.$ , y g z F.F.F.F.o o $ ; 7 7 0 Z 4.u g m B Y _ /   ",
"  R J 7.D.D.D.+.o o $ : : < < 7 : : D.D.D.D.$ < y z z D.D.D.D.o o + % : 7 : 7 0 u g m J J R /   ",
"  Y J >.S.S.D.+.o $ & , 7 0 0 0 7 7 S.S.D.S.% : y z z S.S.S.S.o o % ; 7 7 0 0 0 u g N B Y Y /   ",
"  _ Y ;.A.A.A.$.$ & < 7 r i i i i 0 A.A.A.A.& < y g z A.A.A.A.+ $ % 7 0 i i i g l c V J Y Y /   ",
"  / J ;.A.C.A.O.% ; 0 d z z z z z g A.C.C.A.% < y g z C.C.A.C.$ & < r g z z c z v B J J R _ /   ",
"  Y J =.V.C.C.O.; < u l v M F J M z C.V.C.C.% : y z v C.V.C.V.& : 0 g z B B J J J Y Y Y / / /   ",
"  R Y =.V.V.V.O.; 7 d m J Y Y Y J B V.V.V.V.: : r g z V.V.V.V.& : 0 z B Y Y Y Y Y Y R / / / /   ",
"  _ { b.B.B.B.b.S 0 g v J Y / / Y r.B.V.V.V.4.< y z e.B.B.B.V.4.7 r z B Y / / / / / / / / / /   ",
"  _ J M g 0 7 : 7 0 g B J Y / / Y B v p 7 : : 7 i z v l p 7 : : 7 r v J Y / / / / / / / / / /   ",
"  R Y B l u 7 7 0 i z B Y _ / / Y J v g 0 7 7 0 i v m l d 0 7 7 0 g v J Y / / / / / / / / / /   ",
"  / J J m g u u y g m B Y Y / / ) J B z i r r d z v B v l d u r i g B J Y / / / / / / / / / /   ",
"  Y Y J B m l g z m B J Y / / / R Y B v v z z z v J B J M l l g m B B Y / / / / / / / / / / /   ",
"  _ Y Y J B B m B B J Y Y / / / / R L J B m B B J J J J J B m B B B Y Y Y / / / / / / / / / /   ",
"    / Y Y Y J J J J Y Y / / / / ` R _ J J J J J Y Y Y _ J J J J J R Y Y / / / / / / / / R /     ",
"    R ' R R R R / R R / / / / / / / / Y / Y Y / R R ` R / Y Y / ) Y / / / / / / / / / / ' R     ",
"      R Q / / / / / / / / / / / / / / / / / / / / / / / / / / / / / / / / / / / / / / / R       ",
"          _ / / / / / / / / / / / / / / / / / / / / / / / / / / / / / / / / / / / / }           ",
"                                                                                                ",
"                                                                                                ",
"                                                                                                ",
"                                                                                                ",
"                                                                                                ",
"                                                                                                ",
"                                                                                                "
};
